<svg width="630" height="630" viewBox="0 0 630 630" fill="none" xmlns="http://www.w3.org/2000/svg">
<path fill-rule="evenodd" clip-rule="evenodd" d="M290.895 629.091C298.851 629.693 306.89 630 315 630C323.11 630 331.149 629.693 339.105 629.091C396.3 624.764 449.229 605.162 493.825 574.355C500.005 570.085 506.026 565.601 511.875 560.911C518.152 555.88 524.232 550.612 530.103 545.123C591.577 487.637 630 405.806 630 315C630 141.03 488.97 0 315 0C141.03 0 0 141.03 0 315C0 405.806 38.4228 487.637 99.8974 545.123C105.768 550.612 111.848 555.88 118.125 560.911C123.974 565.601 129.995 570.085 136.175 574.355C180.771 605.162 233.7 624.764 290.895 629.091ZM355.285 582.02C400.576 575.253 442.149 557.247 477.151 530.91L464.214 495H385.198L355.285 582.02ZM400.667 450H448.002L423.779 382.765L400.667 450ZM445.751 310.988C445.288 279.54 439.364 234.162 422.22 195.196C404.32 154.516 371.213 115.312 315 115.312C258.787 115.312 225.68 154.516 207.78 195.196C190.636 234.162 184.712 279.54 184.249 310.988L116.762 498.313C72.177 450.133 45 385.751 45 315C45 165.883 165.883 45 315 45C464.117 45 585 165.883 585 315C585 385.751 557.823 450.133 513.239 498.313L445.751 310.988ZM152.849 530.91C187.851 557.247 229.424 575.253 274.715 582.02L244.802 495H165.786L152.849 530.91ZM181.998 450H229.333L206.221 382.765L181.998 450ZM229.248 311.327L315 560.786L400.752 311.327C400.315 283.897 394.991 245.048 381.03 213.319C366.445 180.172 345.412 160.312 315 160.312C284.588 160.312 263.555 180.172 248.97 213.319C235.009 245.048 229.686 283.897 229.248 311.327Z" fill="#f79e38"/>
</svg>
